<svg xmlns="http://www.w3.org/2000/svg" width="256" height="256" viewBox="0 0 32 32">
  <rect x="1" y="1" width="30" height="30" rx="6" fill="#05070b" />
  <rect x="3" y="7" width="25" height="17" rx="4" fill="none" stroke="#f5f7fb" stroke-width="1" />
  <line x1="16" y1="1" x2="16" y2="7" stroke="#f5f7fb" stroke-width="1" stroke-linecap="round" />
  <g fill="#f5f7fb">
    <rect x="6" y="10" width="2" height="2" rx="0.3" />
    <rect x="9" y="10" width="2" height="2" rx="0.3" />
    <rect x="12" y="10" width="2" height="2" rx="0.3" />
    <rect x="15" y="10" width="2" height="2" rx="0.3" />
    <rect x="18" y="10" width="2" height="2" rx="0.3" />
    <rect x="21" y="10" width="2" height="2" rx="0.3" />
    <rect x="24" y="10" width="2" height="2" rx="0.3" />
    <rect x="10" y="22" width="12" height="1" rx="0.3" />
  </g>
  <g fill="#39a0ff">
    <rect x="6" y="14" width="2" height="2" rx="0.3" />
    <rect x="9" y="14" width="2" height="2" rx="0.3" />
    <rect x="12" y="14" width="2" height="2" rx="0.3" />
    <rect x="15" y="14" width="2" height="2" rx="0.3" />
    <rect x="18" y="14" width="2" height="2" rx="0.3" />
    <rect x="21" y="14" width="2" height="2" rx="0.3" />
    <rect x="24" y="14" width="2" height="2" rx="0.3" />
    <rect x="6" y="18" width="3" height="2" rx="0.3" />
    <rect x="11" y="18" width="2" height="2" rx="0.3" />
    <rect x="15" y="18" width="2" height="2" rx="0.3" />
    <rect x="19" y="18" width="2" height="2" rx="0.3" />
    <rect x="23" y="18" width="3" height="2" rx="0.3" />
  </g>
  <path
    d="M22 4 L22 15 L25 12 L27 18 L29 17 L27 11 L31 11 Z"
    fill="#39a0ff"
    stroke="#f5f7fb"
    stroke-width="1"
    stroke-linejoin="round"
  />
</svg>
